<svg width="580" height="400" xmlns="http://www.w3.org/2000/svg">
 <!-- Created with Method Draw - http://github.com/duopixel/Method-Draw/ -->

 <g>
  <title>background</title>
  <rect fill="#fff" id="canvas_background" height="402" width="582" y="-1" x="-1"/>
  <g display="none" overflow="visible" y="0" x="0" height="100%" width="100%" id="canvasGrid">
   <rect fill="url(#gridpattern)" stroke-width="0" y="0" x="0" height="100%" width="100%"/>
  </g>
 </g>
 <g>
  <title>Layer 1</title>
  <style transform="matrix(0.06781683510376357,0,0,0.06781683510376357,0,0) " type="text/css">
   <![CDATA[
	.st0{display:inline;}
	.st1{fill:none;stroke:#000000;stroke-width:16;stroke-linecap:round;stroke-linejoin:round;stroke-miterlimit:10;}
	.st2{display:none;}
]]>
  </style>
  <g opacity="0.25" id="svg_21">
   <g transform="matrix(0.06781683510376357,0,0,0.06781683510376357,0,0) " id="svg_6" class="st2">
    <g id="svg_8" class="st0">
     <path fill="#ff0000" id="svg_9" d="m4064.178461,2949.057117c117.197,-166.583 307.094,-166.583 424.094,0l0,0.126c-117,166.583 -306.788,166.583 -423.985,0" class="st1"/>
     <g id="svg_10">
      <circle fill="#ff0000" id="svg_11" r="85.5" cy="2949.120117" cx="4276.085461" class="st1"/>
      <path fill="#ff0000" id="svg_12" d="m4276.585461,2904.620117c23.748,0 43,19.252 43,43" class="st1"/>
     </g>
    </g>
   </g>
   <g transform="matrix(0.06781683510376357,0,0,0.06781683510376357,0,0) " id="svg_5">
    <g id="svg_13">
     <g id="svg_14">
      <path fill="#ff0000" id="svg_15" d="m4276.352461,3082.120117c-40.34,0 -79.631,-10.86 -116.784,-32.281c-38.137,-21.987 -72.319,-54.197 -101.604,-95.739c-2.2,-2.709 -2.437,-6.65 -0.329,-9.646c29.332,-41.693 63.597,-74.01 101.841,-96.054c37.16,-21.418 76.468,-32.28 116.82,-32.28c0.032,0 0.057,0 0.089,0c40.357,0.016 79.648,10.893 116.782,32.329c38.188,22.044 72.389,54.347 101.651,96.01c0.945,1.347 1.453,2.953 1.453,4.598l0,0.126c0,1.646 -0.508,3.251 -1.453,4.598c-29.264,41.664 -63.458,73.967 -101.633,96.01c-37.123,21.435 -76.402,32.312 -116.745,32.329c-0.029,0 -0.059,0 -0.088,0zm-202.333,-133.075c54.751,75.549 126.424,117.075 202.333,117.075c0.029,0 0.055,0 0.083,0c75.853,-0.03 147.426,-41.529 202.057,-117c-54.631,-75.471 -126.224,-116.97 -202.112,-117c-0.023,0 -0.059,0 -0.082,0c-75.901,0 -147.538,41.461 -202.279,116.925z"/>
     </g>
     <g id="svg_16">
      <g id="svg_17">
       <path fill="#ff0000" id="svg_18" d="m4276.085461,3042.620117c-51.556,0 -93.5,-41.944 -93.5,-93.5c0,-51.556 41.944,-93.5 93.5,-93.5c51.556,0 93.5,41.944 93.5,93.5c0,51.556 -41.945,93.5 -93.5,93.5zm0,-171c-42.733,0 -77.5,34.767 -77.5,77.5s34.767,77.5 77.5,77.5s77.5,-34.767 77.5,-77.5s-34.767,-77.5 -77.5,-77.5z"/>
      </g>
      <g id="svg_19">
       <path fill="#ff0000" id="svg_20" d="m4319.585461,2955.620117c-4.418,0 -8,-3.582 -8,-8c0,-19.299 -15.701,-35 -35,-35c-4.418,0 -8,-3.582 -8,-8s3.582,-8 8,-8c28.121,0 51,22.878 51,51c0,4.418 -3.583,8 -8,8z"/>
      </g>
     </g>
    </g>
   </g>
  </g>
 </g>
</svg>